<?xml version="1.0" encoding="UTF-8" standalone="no"?>
<svg
   xmlns:dc="http://purl.org/dc/elements/1.1/"
   xmlns:cc="http://creativecommons.org/ns#"
   xmlns:rdf="http://www.w3.org/1999/02/22-rdf-syntax-ns#"
   xmlns:svg="http://www.w3.org/2000/svg"
   xmlns="http://www.w3.org/2000/svg"
   xmlns:sodipodi="http://sodipodi.sourceforge.net/DTD/sodipodi-0.dtd"
   xmlns:inkscape="http://www.inkscape.org/namespaces/inkscape"
   sodipodi:docname="lore.svg"
   inkscape:version="1.1-dev (52bb70a, 2020-03-07)"
   id="svg8"
   version="1.1"
   viewBox="0 0 210 297"
   height="297mm"
   width="210mm">
  <defs
     id="defs2" />
  <sodipodi:namedview
     inkscape:window-maximized="0"
     inkscape:window-y="11"
     inkscape:window-x="27"
     inkscape:window-height="729"
     inkscape:window-width="1260"
     showgrid="false"
     inkscape:current-layer="layer1"
     inkscape:document-units="mm"
     inkscape:cy="576.39044"
     inkscape:cx="503.81159"
     inkscape:zoom="0.7"
     inkscape:pageshadow="2"
     inkscape:pageopacity="0.0"
     borderopacity="1.0"
     bordercolor="#666666"
     pagecolor="#ffffff"
     id="base" />
  <metadata
     id="metadata5">
    <rdf:RDF>
      <cc:Work
         rdf:about="">
        <dc:format>image/svg+xml</dc:format>
        <dc:type
           rdf:resource="http://purl.org/dc/dcmitype/StillImage" />
        <dc:title></dc:title>
      </cc:Work>
    </rdf:RDF>
  </metadata>
  <g
     id="layer1"
     inkscape:groupmode="layer"
     inkscape:label="Capa 1">
    <path
       sodipodi:nodetypes="ccssssscssssccccsccssssscccscccccscccsssscccssscssssssssssssssscccsscssssscccsssssscsssccsccccsscccccsssscsssscccsssc"
       inkscape:connector-curvature="0"
       id="path24"
       d="m 43.448759,163.29934 0.191486,-61.32976 28.211595,-2.818985 c 15.516381,-1.550441 31.45195,-3.135918 35.41238,-3.523284 3.96043,-0.387366 14.58158,-1.4571 23.60257,-2.377186 9.02098,-0.920087 17.03184,-1.678061 17.80192,-1.684388 1.32331,-0.01087 1.40016,3.341091 1.40016,61.077583 v 61.08908 l -3.00032,0.40423 c -2.50153,0.33702 -19.74504,2.07925 -57.006196,5.75971 -3.300359,0.326 -13.741492,1.37822 -23.20252,2.33827 -9.461027,0.96006 -18.642024,1.89158 -20.402215,2.07003 l -3.200348,0.32447 z m 17.810467,54.61611 c 3.740406,-0.37937 11.481246,-1.1512 17.201867,-1.71516 37.736857,-3.72031 64.144397,-6.44153 64.976857,-6.69569 0.74936,-0.22879 0.96782,-13.0811 0.96077,-56.5251 l -0.01,-56.228975 -4.16113,0.427101 c -2.2886,0.234905 -16.33273,1.640333 -31.20915,3.123174 -14.876414,1.48284 -28.197861,2.83008 -29.603214,2.99386 -1.405352,0.16379 -7.595728,0.768 -13.756397,1.34271 -6.160669,0.5747 -12.371344,1.20599 -13.801499,1.40287 l -2.600282,0.35796 v 56.44445 56.44444 l 2.600282,-0.34094 c 1.430155,-0.18751 5.660615,-0.65132 9.401022,-1.0307 z m -6.400695,-55.08031 v -51.79413 l 1.800195,-0.009 c 0.990108,-0.005 2.610284,-0.1915 3.600392,-0.41435 l 1.800194,-0.40517 v 49.20606 49.20607 l 2.707479,-0.42659 c 2.922549,-0.46046 3.693217,0.2297 3.693217,3.30744 0,1.42193 -0.451274,1.61839 -4.6005,2.00278 -2.530274,0.23441 -5.590607,0.58258 -6.800738,0.7737 l -2.200239,0.3475 v -51.79412 z m 16.152602,48.30138 c -0.963073,-0.75355 -1.845533,-2.54609 -1.845533,-2.54609 -0.249819,-0.68033 0,0 -0.705592,-1.45948 -0.228775,-0.47321 -0.799063,-15.73333 -0.797095,-45.86111 0.0032,-44.577 0.04752,-45.92243 1.592862,-48.05111 4.217002,-5.80881 14.561692,-6.51339 17.450463,-1.18856 0.711165,1.31087 0.955855,13.46785 0.955855,47.48984 0,50.65553 0.181228,48.84922 -5.180162,51.6321 -3.517214,1.82565 -9.127359,1.81802 -11.470798,-0.0156 z m 9.05556,-5.51747 c 0.239769,-0.83155 0.336636,-21.76731 0.215263,-46.52392 -0.209399,-42.71006 -0.294257,-45.02391 -1.659277,-45.24464 -3.848537,-0.62233 -3.761976,-1.70118 -3.761976,46.88567 0,25.02437 0.240026,45.70044 0.533394,45.94682 1.286699,1.08065 4.248678,0.40622 4.672596,-1.06393 z m 13.196008,-46.49341 c 0,-28.85627 0.308593,-51.52529 0.704205,-51.73063 0.387314,-0.20104 3.784083,-0.56435 7.548374,-0.80736 l 6.84416,-0.44184 2.47369,2.07754 2.47367,2.07753 -0.32852,22.71266 c -0.39006,26.96622 -0.39004,19.59576 -1.2e-4,50.0078 l 0.3241,25.27926 -2.51896,0.42312 c -1.38543,0.23271 -2.834,0.42311 -3.21905,0.42311 -0.38648,0 -0.70007,-10.3598 -0.70007,-23.12758 0,-12.72017 -0.21854,-23.60589 -0.48565,-24.19048 -0.31081,-0.68024 -1.46296,-1.06289 -3.20034,-1.06289 h -2.71471 v 24.44246 24.44246 l -2.500268,0.41997 c -1.37515,0.23098 -2.995326,0.41997 -3.600392,0.41997 -0.923836,0 -1.100119,-8.23056 -1.100119,-51.3651 z m 12.355979,-5.22886 c 1.05813,-1.26876 1.2455,-4.44058 1.2455,-21.08438 0,-21.09833 -0.0735,-21.46914 -4.15642,-20.98303 l -1.84423,0.21957 -0.21187,20.82413 c -0.11652,11.45328 -0.0378,21.20507 0.17492,21.67064 0.62018,1.35735 3.43779,0.97697 4.7921,-0.64693 z m 14.04689,2.28636 v -51.61976 l 8.20088,-0.79675 c 4.5105,-0.43821 9.01099,-0.79503 10.0011,-0.79293 l 1.80019,0.004 v 21.75463 21.75463 l -2.50027,0.41998 c -5.02344,0.84379 -4.70051,2.13059 -4.70051,-18.73082 v -19.1508 h -2.80031 -2.8003 v 21.91691 21.9169 l 5.33999,-0.48028 c 2.93699,-0.26415 5.81731,-0.63411 6.40069,-0.82213 0.77301,-0.24912 1.06071,0.39441 1.06071,2.37259 0,3.08314 -0.11204,3.13818 -7.80085,3.83057 l -5.00054,0.45031 v 21.77265 c 0,21.01523 0.0534,21.77264 1.53473,21.77264 4.19158,0 4.06588,0.61285 4.06588,-19.82275 0,-20.84853 -0.25181,-19.82275 4.86596,-19.82275 h 2.33482 v 21.80818 21.80817 l -2.60028,0.36665 c -2.74996,0.38776 -15.72588,1.71012 -16.78084,1.71012 -0.34157,0 -0.62105,-23.2289 -0.62105,-51.61977 z"
       style="fill:#000000;stroke-width:0.733229" />
  </g>
</svg>
